<svg width="32" height="32" viewBox="0 0 32 32" fill="none" xmlns="http://www.w3.org/2000/svg">
<path d="M22.1968 14.6491H17.2394V9.69175C17.2394 9.00763 16.6854 8.45238 16 8.45238C15.3147 8.45238 14.7607 9.00763 14.7607 9.69175V14.6491H9.80328C9.1179 14.6491 8.5639 15.2044 8.5639 15.8885C8.5639 16.5726 9.1179 17.1279 9.80328 17.1279H14.7607V22.0853C14.7607 22.7694 15.3147 23.3246 16 23.3246C16.6854 23.3246 17.2394 22.7694 17.2394 22.0853V17.1279H22.1968C22.8822 17.1279 23.4362 16.5726 23.4362 15.8885C23.4362 15.2044 22.8822 14.6491 22.1968 14.6491Z" fill="white"/>
</svg>
