<svg width="33" height="32" viewBox="0 0 33 32" fill="none" xmlns="http://www.w3.org/2000/svg">
<path fill-rule="evenodd" clip-rule="evenodd" d="M13.2869 23.0307C18.6683 23.0307 23.0307 18.6683 23.0307 13.2869C23.0307 7.90561 18.6683 3.54318 13.2869 3.54318C7.90561 3.54318 3.54318 7.90561 3.54318 13.2869C3.54318 18.6683 7.90561 23.0307 13.2869 23.0307ZM13.2869 26.5739C20.6251 26.5739 26.5739 20.6251 26.5739 13.2869C26.5739 5.94876 20.6251 0 13.2869 0C5.94876 0 0 5.94876 0 13.2869C0 20.6251 5.94876 26.5739 13.2869 26.5739Z" fill="white"/>
<path fill-rule="evenodd" clip-rule="evenodd" d="M31.2981 30.7076C30.6289 31.4214 29.5078 31.4575 28.794 30.7883L21.9304 24.3537C21.2166 23.6845 21.1804 22.5634 21.8496 21.8496V21.8496C22.5188 21.1358 23.6399 21.0996 24.3537 21.7688L31.2173 28.2035C31.9311 28.8726 31.9672 29.9938 31.2981 30.7076V30.7076Z" fill="white"/>
</svg>
